# xmcd CD database file
#
# Track frame offsets:
#	150
#	17742
#	36174
#	50008
#	76514
#	94584
#	109664
#	128062
#	149406
#	170574
#	186837
#	206162
#
# Disc length: 3028 seconds
#
# Revision: 0
# Processed by: cddbd v1.5.2PL0 Copyright (c) Steve Scherf et al.
# Submitted via: CDex 1.51
#
DISCID=9f0bd20c
DTITLE=I Am Robot And Proud - The Catch and Spring Summer Autumn Winter
DYEAR=2007
DGENRE=Jazz
TTITLE0=The Catch
TTITLE1=Read and Re-Read
TTITLE2=Saturday Afternoon Plans
TTITLE3=James's Equation
TTITLE4=Eyes Closed Hopefully
TTITLE5=The Heart Of Things
TTITLE6=The Satellite Kids
TTITLE7=Julie's Equation
TTITLE8=Vendredi le 30 Mars
TTITLE9=When We Were All Together
TTITLE10=September Argument
TTITLE11=Last Day Of Winter
EXTD=YEAR: 2007
EXTT0=
EXTT1=
EXTT2=
EXTT3=
EXTT4=
EXTT5=
EXTT6=
EXTT7=
EXTT8=
EXTT9=
EXTT10=
EXTT11=
PLAYORDER=
